<?xml version="1.0" encoding="utf-8"?>
<!-- Generator: Adobe Illustrator 16.0.0, SVG Export Plug-In . SVG Version: 6.00 Build 0)  -->
<!DOCTYPE svg PUBLIC "-//W3C//DTD SVG 1.1//EN" "http://www.w3.org/Graphics/SVG/1.1/DTD/svg11.dtd">
<svg version="1.1" id="Layer_1" xmlns="http://www.w3.org/2000/svg" xmlns:xlink="http://www.w3.org/1999/xlink" x="0px" y="0px"
	 width="400px" height="100px" viewBox="0 0 400 100" enable-background="new 0 0 400 100" xml:space="preserve">
<g>
	<g>
		<path fill="#FFFFFF" d="M14.698,22.328l30.786,12.442v9.64L5.255,25.77v-7.18L45.484,0v9.64L14.698,22.328z"/>
		<path fill="#FFFFFF" d="M89.087,7.895h-13.16v35.792h-8.853V7.895H54.091V0.723h34.996V7.895z"/>
		<path fill="#FFFFFF" d="M129.1,43.687h-8.854V25.273h-17.261v18.413h-8.853V0.723h8.853v17.41h17.261V0.723h8.854V43.687z"/>
		<path fill="#FFFFFF" d="M162.679,25.066h-16.996v11.509h19.947v7.111h-28.8V0.723h28.74v7.172h-19.888v10.238h16.996V25.066z"/>
	</g>
	<g>
		<path fill="#FFFFFF" d="M54.091,98.155V55.194h13.218c3.777,0,7.157,0.85,10.138,2.553c2.979,1.699,5.305,4.119,6.978,7.256
			c1.672,3.139,2.509,6.705,2.509,10.697v1.979c0,3.994-0.821,7.543-2.464,10.65s-3.96,5.518-6.95,7.229
			c-2.99,1.713-6.363,2.578-10.121,2.598H54.091z M62.942,62.362v28.682h4.278c3.462,0,6.107-1.131,7.938-3.395
			c1.829-2.26,2.764-5.496,2.803-9.705V75.67c0-4.365-0.904-7.676-2.714-9.93c-1.811-2.252-4.457-3.379-7.938-3.379H62.942z"/>
		<path fill="#FFFFFF" d="M119.213,79.536h-16.996v11.508h19.946v7.111H93.364V55.194h28.74v7.168h-19.888v10.24h16.996V79.536z"/>
		<path fill="#FFFFFF" d="M143.232,87.502l9.737-32.309h9.855l-14.96,42.961h-9.236l-14.901-42.961h9.827L143.232,87.502z"/>
		<path fill="#FFFFFF" d="M189.146,86.883c0-1.672-0.59-2.955-1.77-3.85c-1.181-0.896-3.305-1.84-6.374-2.834
			c-3.068-0.992-5.498-1.971-7.288-2.936c-4.879-2.637-7.318-6.188-7.318-10.652c0-2.32,0.654-4.391,1.963-6.211
			c1.309-1.818,3.187-3.24,5.636-4.266c2.449-1.021,5.197-1.533,8.248-1.533c3.068,0,5.803,0.557,8.203,1.668
			c2.399,1.109,4.264,2.68,5.591,4.707c1.328,2.025,1.991,4.326,1.991,6.904h-8.852c0-1.967-0.62-3.496-1.859-4.588
			s-2.979-1.637-5.222-1.637c-2.165,0-3.847,0.455-5.047,1.371c-1.2,0.912-1.8,2.119-1.8,3.613c0,1.396,0.703,2.568,2.11,3.514
			c1.406,0.941,3.477,1.828,6.211,2.652c5.036,1.516,8.704,3.396,11.007,5.639c2.301,2.242,3.451,5.035,3.451,8.381
			c0,3.715-1.406,6.633-4.219,8.746c-2.813,2.115-6.6,3.174-11.36,3.174c-3.305,0-6.314-0.605-9.029-1.814
			c-2.715-1.211-4.785-2.869-6.211-4.975c-1.427-2.104-2.14-4.541-2.14-7.316h8.882c0,4.74,2.832,7.109,8.498,7.109
			c2.104,0,3.747-0.426,4.928-1.281C188.556,89.612,189.146,88.417,189.146,86.883z"/>
		<path fill="#FFFFFF" d="M238.986,98.155h-8.854V79.743h-17.264v18.412h-8.851V55.194h8.851v17.408h17.264V55.194h8.854V98.155z"/>
		<path fill="#FFFFFF" d="M282.007,77.647c0,4.23-0.748,7.939-2.244,11.125c-1.494,3.186-3.635,5.645-6.416,7.375
			c-2.785,1.732-5.977,2.6-9.576,2.6c-3.561,0-6.738-0.857-9.531-2.568c-2.795-1.713-4.957-4.154-6.49-7.334
			c-1.535-3.174-2.313-6.83-2.332-10.961V75.76c0-4.23,0.762-7.953,2.285-11.168c1.525-3.217,3.682-5.686,6.463-7.408
			c2.785-1.721,5.965-2.582,9.547-2.582c3.58,0,6.762,0.861,9.545,2.582c2.783,1.723,4.938,4.191,6.463,7.408
			c1.525,3.215,2.287,6.93,2.287,11.137V77.647z M273.037,75.7c0-4.504-0.807-7.928-2.42-10.268
			c-1.613-2.342-3.914-3.512-6.904-3.512c-2.971,0-5.264,1.156-6.875,3.467c-1.615,2.314-2.43,5.699-2.449,10.164v2.096
			c0,4.389,0.807,7.791,2.418,10.209c1.613,2.42,3.936,3.631,6.965,3.631c2.971,0,5.254-1.166,6.846-3.496
			c1.594-2.332,2.398-5.73,2.42-10.197V75.7z"/>
		<path fill="#FFFFFF" d="M297.291,83.018v15.137h-8.852V55.194h16.762c3.225,0,6.063,0.59,8.514,1.77
			c2.447,1.18,4.332,2.857,5.648,5.029c1.318,2.176,1.977,4.648,1.977,7.422c0,4.211-1.439,7.529-4.32,9.959
			c-2.885,2.432-6.873,3.645-11.967,3.645H297.291z M297.291,75.846h7.91c2.34,0,4.127-0.549,5.355-1.652
			c1.229-1.1,1.844-2.672,1.844-4.719c0-2.105-0.621-3.807-1.859-5.105s-2.951-1.967-5.135-2.008h-8.115V75.846z"/>
		<path fill="#FFFFFF" d="M329.542,100h-6.344l15.816-46.652h6.344L329.542,100z"/>
		<path fill="#FFFFFF" d="M385.253,76.551l-32.508-12.736v-9.346l42,18.59v7.18l-42,18.639v-9.441L385.253,76.551z"/>
	</g>
</g>
</svg>
